<svg width="24" height="24" viewBox="0 0 24 24" fill="none" xmlns="http://www.w3.org/2000/svg">
<path d="M12 0C11.6032 0 11.2109 0.0192686 10.8238 0.0569399C10.6239 0.0763931 10.4776 0.254203 10.4971 0.454089C10.4974 0.457218 10.4952 0.460047 10.492 0.46045C10.4844 0.461443 10.4767 0.462444 10.469 0.463452C10.4659 0.463864 10.463 0.461688 10.4625 0.458571C10.43 0.260384 10.243 0.126056 10.0448 0.158539C9.52303 0.244066 9.01249 0.363256 8.51556 0.513812C8.32336 0.572044 8.21475 0.775062 8.27298 0.967265C8.2739 0.970307 8.27227 0.97355 8.26926 0.974568C7.77797 1.14075 7.30139 1.33885 6.84199 1.5664C6.83916 1.5678 6.83573 1.56667 6.83423 1.56388C6.73941 1.38685 6.51902 1.3202 6.34199 1.41502C6.11074 1.53889 5.88403 1.6701 5.66217 1.80835C5.49172 1.91456 5.43965 2.13884 5.54586 2.30928C5.54753 2.31196 5.5468 2.31548 5.54418 2.31723C5.32645 2.46269 5.11389 2.6153 4.90686 2.77472C4.90437 2.77664 4.90081 2.7762 4.89882 2.77378C4.77133 2.61861 4.54218 2.59617 4.38701 2.72366C3.77983 3.22253 3.22252 3.77984 2.72366 4.38701C2.59617 4.54218 2.6186 4.77133 2.77378 4.89882C2.7762 4.90081 2.77664 4.90437 2.77472 4.90686C2.77005 4.91293 2.76538 4.91901 2.76071 4.92509C2.7588 4.92758 2.75525 4.92808 2.7527 4.92624C2.58955 4.80913 2.36235 4.84645 2.24524 5.00959C1.94069 5.43384 1.66311 5.87881 1.41502 6.34199C1.3202 6.51903 1.38685 6.73941 1.56388 6.83423C1.56667 6.83573 1.5678 6.83916 1.5664 6.84199C1.33885 7.30139 1.14075 7.77797 0.974567 8.26926C0.973549 8.27227 0.970306 8.27391 0.967265 8.27298C0.775062 8.21475 0.572044 8.32336 0.513812 8.51556C0.438209 8.7651 0.370515 9.01807 0.31102 9.27418C0.265577 9.4698 0.387321 9.66522 0.582943 9.71066C0.586033 9.71138 0.588025 9.71441 0.587406 9.71752C0.536637 9.97279 0.494221 10.2311 0.46045 10.492C0.460047 10.4952 0.457218 10.4974 0.454089 10.4971C0.254203 10.4776 0.0763928 10.6239 0.0569397 10.8238C0.0192685 11.2109 0 11.6032 0 12C0 12.3968 0.0192686 12.7891 0.0569399 13.1762C0.0763931 13.3761 0.254203 13.5224 0.454089 13.5029C0.457219 13.5026 0.460047 13.5048 0.46045 13.508C0.461444 13.5156 0.462444 13.5233 0.463452 13.531C0.463864 13.5341 0.461687 13.537 0.458571 13.5375C0.260384 13.57 0.126056 13.757 0.158539 13.9552C0.244066 14.477 0.363256 14.9875 0.513812 15.4844C0.572044 15.6766 0.775062 15.7853 0.967265 15.727C0.970307 15.7261 0.97355 15.7277 0.974569 15.7307C1.14075 16.222 1.33885 16.6986 1.5664 17.158C1.5678 17.1608 1.56667 17.1643 1.56388 17.1658C1.38685 17.2606 1.3202 17.481 1.41502 17.658C1.53889 17.8893 1.6701 18.116 1.80835 18.3378C1.91456 18.5083 2.13884 18.5604 2.30928 18.4541C2.31196 18.4525 2.31548 18.4532 2.31723 18.4558C2.46269 18.6736 2.6153 18.8861 2.77472 19.0931C2.77664 19.0956 2.7762 19.0992 2.77378 19.1012C2.61861 19.2287 2.59617 19.4578 2.72366 19.613C3.22253 20.2202 3.77984 20.7775 4.38701 21.2763C4.54218 21.4038 4.77133 21.3814 4.89882 21.2262C4.90081 21.2238 4.90437 21.2234 4.90686 21.2253C4.91293 21.23 4.91901 21.2346 4.92509 21.2393C4.92758 21.2412 4.92808 21.2448 4.92624 21.2473C4.80913 21.4105 4.84645 21.6376 5.00959 21.7548C5.43384 22.0593 5.87881 22.3369 6.34199 22.585C6.51903 22.6798 6.73941 22.6132 6.83423 22.4361C6.83573 22.4333 6.83916 22.4322 6.84199 22.4336C7.3014 22.6612 7.77797 22.8592 8.26926 23.0254C8.27227 23.0265 8.27391 23.0297 8.27298 23.0327C8.21475 23.2249 8.32336 23.428 8.51556 23.4862C8.7651 23.5618 9.01807 23.6295 9.27418 23.689C9.4698 23.7344 9.66522 23.6127 9.71066 23.4171C9.71138 23.414 9.71441 23.412 9.71753 23.4126C9.97279 23.4634 10.2311 23.5058 10.492 23.5395C10.4952 23.54 10.4974 23.5428 10.4971 23.5459C10.4776 23.7458 10.6239 23.9236 10.8238 23.9431C11.2109 23.9807 11.6032 24 12 24C12.3968 24 12.7891 23.9807 13.1762 23.9431C13.3761 23.9236 13.5224 23.7458 13.5029 23.5459C13.5026 23.5428 13.5048 23.54 13.508 23.5396C13.5156 23.5386 13.5233 23.5376 13.531 23.5365C13.5341 23.5361 13.537 23.5383 13.5375 23.5414C13.57 23.7396 13.757 23.8739 13.9552 23.8415C14.477 23.7559 14.9875 23.6367 15.4844 23.4862C15.6766 23.428 15.7853 23.2249 15.727 23.0327C15.7261 23.0297 15.7277 23.0265 15.7307 23.0254C16.222 22.8592 16.6986 22.6612 17.158 22.4336C17.1608 22.4322 17.1643 22.4333 17.1658 22.4361C17.2606 22.6132 17.481 22.6798 17.658 22.585C17.8893 22.4611 18.116 22.3299 18.3378 22.1917C18.5083 22.0854 18.5604 21.8612 18.4541 21.6907C18.4525 21.688 18.4532 21.6845 18.4558 21.6828C18.6736 21.5373 18.8861 21.3847 19.0931 21.2253C19.0956 21.2234 19.0992 21.2238 19.1012 21.2262C19.2287 21.3814 19.4578 21.4038 19.613 21.2763C20.2202 20.7775 20.7775 20.2202 21.2763 19.613C21.4038 19.4578 21.3814 19.2287 21.2262 19.1012C21.2238 19.0992 21.2234 19.0956 21.2253 19.0931C21.23 19.0871 21.2346 19.081 21.2393 19.0749C21.2412 19.0724 21.2448 19.0719 21.2473 19.0738C21.4105 19.1909 21.6376 19.1536 21.7548 18.9904C22.0593 18.5662 22.3369 18.1212 22.585 17.658C22.6798 17.481 22.6132 17.2606 22.4361 17.1658C22.4333 17.1643 22.4322 17.1608 22.4336 17.158C22.6612 16.6986 22.8592 16.222 23.0254 15.7307C23.0265 15.7277 23.0297 15.7261 23.0327 15.727C23.2249 15.7852 23.428 15.6766 23.4862 15.4844C23.5618 15.2349 23.6295 14.9819 23.689 14.7258C23.7344 14.5302 23.6127 14.3348 23.4171 14.2893C23.414 14.2886 23.412 14.2856 23.4126 14.2825C23.4634 14.0272 23.5058 13.7689 23.5395 13.508C23.54 13.5048 23.5428 13.5026 23.5459 13.5029C23.7458 13.5224 23.9236 13.3761 23.9431 13.1762C23.9807 12.7891 24 12.3968 24 12C24 11.6032 23.9807 11.2109 23.9431 10.8238C23.9236 10.6239 23.7458 10.4776 23.5459 10.4971C23.5428 10.4974 23.54 10.4952 23.5396 10.492C23.5386 10.4844 23.5376 10.4767 23.5365 10.469C23.5361 10.4659 23.5383 10.463 23.5414 10.4625C23.7396 10.43 23.8739 10.243 23.8415 10.0448C23.7559 9.52303 23.6367 9.01249 23.4862 8.51556C23.428 8.32336 23.2249 8.21475 23.0327 8.27298C23.0297 8.2739 23.0265 8.27227 23.0254 8.26926C22.8592 7.77797 22.6612 7.30139 22.4336 6.84199C22.4322 6.83916 22.4333 6.83573 22.4361 6.83423C22.6132 6.73941 22.6798 6.51902 22.585 6.34199C22.4611 6.11074 22.3299 5.88403 22.1917 5.66217C22.0854 5.49172 21.8612 5.43965 21.6907 5.54586C21.688 5.54753 21.6845 5.5468 21.6828 5.54418C21.5373 5.32644 21.3847 5.11389 21.2253 4.90686C21.2234 4.90437 21.2238 4.90081 21.2262 4.89882C21.3814 4.77133 21.4038 4.54218 21.2763 4.38701C20.7775 3.77983 20.2202 3.22252 19.613 2.72366C19.4578 2.59617 19.2287 2.6186 19.1012 2.77378C19.0992 2.7762 19.0956 2.77664 19.0931 2.77472C19.0871 2.77005 19.081 2.76538 19.0749 2.76072C19.0724 2.7588 19.0719 2.75525 19.0738 2.7527C19.1909 2.58955 19.1536 2.36235 18.9904 2.24524C18.5662 1.94069 18.1212 1.66311 17.658 1.41502C17.481 1.3202 17.2606 1.38685 17.1658 1.56388C17.1643 1.56667 17.1608 1.5678 17.158 1.5664C16.6986 1.33885 16.222 1.14075 15.7307 0.974569C15.7277 0.97355 15.7261 0.970307 15.727 0.967265C15.7852 0.775062 15.6766 0.572044 15.4844 0.513812C15.2349 0.438209 14.9819 0.370515 14.7258 0.31102C14.5302 0.265577 14.3348 0.387321 14.2893 0.582943C14.2886 0.586034 14.2856 0.588025 14.2825 0.587406C14.0272 0.536637 13.7689 0.494221 13.508 0.46045C13.5048 0.460047 13.5026 0.457218 13.5029 0.454089C13.5224 0.254203 13.3761 0.0763928 13.1762 0.0569397C12.7891 0.0192685 12.3968 0 12 0Z" fill="#FFC680"/>
<path d="M12 1.5C11.6528 1.5 11.3095 1.51686 10.9708 1.54982C10.7959 1.56684 10.6679 1.72243 10.6849 1.89733C10.6852 1.90007 10.6833 1.90254 10.6805 1.90289C10.6738 1.90376 10.6671 1.90464 10.6604 1.90552C10.6577 1.90588 10.6551 1.90398 10.6547 1.90125C10.6263 1.72784 10.4626 1.6103 10.2892 1.63872C9.83265 1.71356 9.38593 1.81785 8.95111 1.94959C8.78294 2.00054 8.68791 2.17818 8.73886 2.34636C8.73967 2.34902 8.73823 2.35186 8.7356 2.35275C8.30572 2.49816 7.88872 2.67149 7.48674 2.8706C7.48426 2.87183 7.48126 2.87084 7.47995 2.8684C7.39698 2.71349 7.20415 2.65518 7.04924 2.73815C6.84689 2.84653 6.64852 2.96134 6.4544 3.08231C6.30526 3.17524 6.25969 3.37148 6.35263 3.52062C6.35409 3.52296 6.35345 3.52605 6.35116 3.52758C6.16064 3.65486 5.97465 3.78839 5.7935 3.92788C5.79132 3.92956 5.78821 3.92918 5.78647 3.92706C5.67491 3.79128 5.47441 3.77165 5.33863 3.8832C4.80735 4.31971 4.31971 4.80736 3.8832 5.33863C3.77165 5.47441 3.79128 5.67491 3.92706 5.78647C3.92918 5.78821 3.92956 5.79133 3.92788 5.7935C3.92379 5.79881 3.91971 5.80413 3.91563 5.80945C3.91395 5.81163 3.91084 5.81207 3.90861 5.81046C3.76585 5.70799 3.56706 5.74064 3.46458 5.88339C3.1981 6.25461 2.95522 6.64396 2.73815 7.04924C2.65518 7.20415 2.71349 7.39698 2.8684 7.47995C2.87084 7.48126 2.87182 7.48426 2.8706 7.48674C2.67149 7.88872 2.49816 8.30572 2.35275 8.7356C2.35186 8.73824 2.34902 8.73967 2.34636 8.73886C2.17818 8.68791 2.00054 8.78294 1.94959 8.95111C1.88343 9.16946 1.8242 9.39081 1.77214 9.6149C1.73238 9.78607 1.83891 9.95707 2.01007 9.99683C2.01278 9.99746 2.01452 10.0001 2.01398 10.0028C1.96956 10.2262 1.93244 10.4522 1.90289 10.6805C1.90254 10.6833 1.90007 10.6852 1.89733 10.6849C1.72243 10.6679 1.56684 10.7959 1.54982 10.9708C1.51686 11.3095 1.5 11.6528 1.5 12C1.5 12.3472 1.51686 12.6905 1.54982 13.0292C1.56684 13.2041 1.72243 13.3321 1.89733 13.3151C1.90007 13.3148 1.90254 13.3167 1.90289 13.3195C1.90376 13.3262 1.90464 13.3329 1.90552 13.3396C1.90588 13.3423 1.90398 13.3449 1.90125 13.3453C1.72784 13.3737 1.6103 13.5374 1.63872 13.7108C1.71356 14.1674 1.81785 14.6141 1.94959 15.0489C2.00054 15.2171 2.17818 15.3121 2.34636 15.2611C2.34902 15.2603 2.35186 15.2618 2.35275 15.2644C2.49816 15.6943 2.67149 16.1113 2.8706 16.5133C2.87183 16.5157 2.87084 16.5187 2.8684 16.52C2.71349 16.603 2.65518 16.7959 2.73815 16.9508C2.84653 17.1531 2.96134 17.3515 3.08231 17.5456C3.17524 17.6947 3.37148 17.7403 3.52062 17.6474C3.52296 17.6459 3.52605 17.6466 3.52758 17.6488C3.65486 17.8394 3.78839 18.0253 3.92788 18.2065C3.92956 18.2087 3.92918 18.2118 3.92706 18.2135C3.79128 18.3251 3.77165 18.5256 3.8832 18.6614C4.31971 19.1926 4.80736 19.6803 5.33863 20.1168C5.47441 20.2284 5.67491 20.2087 5.78647 20.0729C5.78821 20.0708 5.79133 20.0704 5.7935 20.0721C5.79881 20.0762 5.80413 20.0803 5.80945 20.0844C5.81163 20.086 5.81207 20.0892 5.81046 20.0914C5.70799 20.2341 5.74064 20.4329 5.88339 20.5354C6.25461 20.8019 6.64396 21.0448 7.04924 21.2619C7.20415 21.3448 7.39698 21.2865 7.47995 21.1316C7.48126 21.1292 7.48426 21.1282 7.48674 21.1294C7.88872 21.3285 8.30572 21.5018 8.7356 21.6473C8.73824 21.6481 8.73967 21.651 8.73886 21.6536C8.68791 21.8218 8.78294 21.9995 8.95111 22.0504C9.16946 22.1166 9.39081 22.1758 9.6149 22.2279C9.78607 22.2676 9.95707 22.1611 9.99683 21.9899C9.99746 21.9872 10.0001 21.9855 10.0028 21.986C10.2262 22.0304 10.4522 22.0676 10.6805 22.0971C10.6833 22.0975 10.6852 22.0999 10.6849 22.1027C10.6679 22.2776 10.7959 22.4332 10.9708 22.4502C11.3095 22.4831 11.6528 22.5 12 22.5C12.3472 22.5 12.6905 22.4831 13.0292 22.4502C13.2041 22.4332 13.3321 22.2776 13.3151 22.1027C13.3148 22.0999 13.3167 22.0975 13.3195 22.0971C13.3262 22.0962 13.3329 22.0954 13.3396 22.0945C13.3423 22.0941 13.3449 22.096 13.3453 22.0987C13.3737 22.2722 13.5374 22.3897 13.7108 22.3613C14.1674 22.2864 14.6141 22.1822 15.0489 22.0504C15.2171 21.9995 15.3121 21.8218 15.2611 21.6536C15.2603 21.651 15.2618 21.6481 15.2644 21.6473C15.6943 21.5018 16.1113 21.3285 16.5133 21.1294C16.5157 21.1282 16.5187 21.1292 16.52 21.1316C16.603 21.2865 16.7959 21.3448 16.9508 21.2619C17.1531 21.1535 17.3515 21.0387 17.5456 20.9177C17.6947 20.8248 17.7403 20.6285 17.6474 20.4794C17.6459 20.477 17.6465 20.474 17.6488 20.4724C17.8394 20.3451 18.0253 20.2116 18.2065 20.0721C18.2087 20.0704 18.2118 20.0708 18.2135 20.0729C18.3251 20.2087 18.5256 20.2284 18.6614 20.1168C19.1926 19.6803 19.6803 19.1926 20.1168 18.6614C20.2284 18.5256 20.2087 18.3251 20.0729 18.2135C20.0708 18.2118 20.0704 18.2087 20.0721 18.2065C20.0762 18.2012 20.0803 18.1959 20.0844 18.1905C20.086 18.1884 20.0892 18.1879 20.0914 18.1895C20.2341 18.292 20.4329 18.2594 20.5354 18.1166C20.8019 17.7454 21.0448 17.356 21.2619 16.9508C21.3448 16.7959 21.2865 16.603 21.1316 16.52C21.1292 16.5187 21.1282 16.5157 21.1294 16.5133C21.3285 16.1113 21.5018 15.6943 21.6473 15.2644C21.6481 15.2618 21.651 15.2603 21.6536 15.2611C21.8218 15.3121 21.9995 15.2171 22.0504 15.0489C22.1166 14.8305 22.1758 14.6092 22.2279 14.3851C22.2676 14.2139 22.1611 14.0429 21.9899 14.0032C21.9872 14.0025 21.9855 13.9999 21.986 13.9972C22.0304 13.7738 22.0676 13.5478 22.0971 13.3195C22.0975 13.3167 22.0999 13.3148 22.1027 13.3151C22.2776 13.3321 22.4332 13.2041 22.4502 13.0292C22.4831 12.6905 22.5 12.3472 22.5 12C22.5 11.6528 22.4831 11.3095 22.4502 10.9708C22.4332 10.7959 22.2776 10.6679 22.1027 10.6849C22.0999 10.6852 22.0975 10.6833 22.0971 10.6805C22.0962 10.6738 22.0954 10.6671 22.0945 10.6604C22.0941 10.6577 22.096 10.6551 22.0987 10.6547C22.2722 10.6263 22.3897 10.4626 22.3613 10.2892C22.2864 9.83265 22.1822 9.38593 22.0504 8.95111C21.9995 8.78294 21.8218 8.68791 21.6536 8.73886C21.651 8.73967 21.6481 8.73823 21.6473 8.7356C21.5018 8.30572 21.3285 7.88872 21.1294 7.48674C21.1282 7.48426 21.1292 7.48126 21.1316 7.47995C21.2865 7.39698 21.3448 7.20415 21.2619 7.04924C21.1535 6.84689 21.0387 6.64852 20.9177 6.4544C20.8248 6.30526 20.6285 6.25969 20.4794 6.35263C20.477 6.35409 20.474 6.35345 20.4724 6.35116C20.3451 6.16064 20.2116 5.97466 20.0721 5.7935C20.0704 5.79132 20.0708 5.78821 20.0729 5.78647C20.2087 5.67491 20.2284 5.47441 20.1168 5.33863C19.6803 4.80735 19.1926 4.31971 18.6614 3.8832C18.5256 3.77165 18.3251 3.79128 18.2135 3.92706C18.2118 3.92918 18.2087 3.92956 18.2065 3.92788C18.2012 3.92379 18.1959 3.91971 18.1905 3.91563C18.1884 3.91395 18.1879 3.91084 18.1895 3.90861C18.292 3.76585 18.2594 3.56706 18.1166 3.46458C17.7454 3.1981 17.356 2.95522 16.9508 2.73815C16.7959 2.65518 16.603 2.71349 16.52 2.8684C16.5187 2.87084 16.5157 2.87182 16.5133 2.8706C16.1113 2.67149 15.6943 2.49816 15.2644 2.35275C15.2618 2.35186 15.2603 2.34902 15.2611 2.34636C15.3121 2.17818 15.2171 2.00054 15.0489 1.94959C14.8305 1.88343 14.6092 1.8242 14.3851 1.77214C14.2139 1.73238 14.0429 1.83891 14.0032 2.01007C14.0025 2.01278 13.9999 2.01452 13.9972 2.01398C13.7738 1.96956 13.5478 1.93244 13.3195 1.90289C13.3167 1.90254 13.3148 1.90007 13.3151 1.89733C13.3321 1.72243 13.2041 1.56684 13.0292 1.54982C12.6905 1.51686 12.3472 1.5 12 1.5Z" fill="#F79D5C"/>
<path d="M6.375 6C6.31301 6 6.2517 6.00301 6.19121 6.0089C6.15998 6.01194 6.13713 6.03972 6.14017 6.07095C6.14021 6.07144 6.13987 6.07188 6.13938 6.07195C6.13818 6.0721 6.13698 6.07226 6.13578 6.07241C6.13529 6.07248 6.13485 6.07214 6.13477 6.07165C6.12969 6.04069 6.10047 6.0197 6.06951 6.02477C5.98797 6.03814 5.9082 6.05676 5.83056 6.08028C5.80052 6.08938 5.78355 6.1211 5.79265 6.15114C5.7928 6.15161 5.79254 6.15212 5.79207 6.15228C5.71531 6.17824 5.64084 6.2092 5.56906 6.24475C5.56862 6.24497 5.56808 6.24479 5.56785 6.24436C5.55303 6.21669 5.5186 6.20628 5.49094 6.2211C5.4548 6.24045 5.41938 6.26095 5.38471 6.28255C5.35808 6.29915 5.34995 6.33419 5.36654 6.36083C5.3668 6.36124 5.36669 6.36179 5.36628 6.36207C5.33226 6.3848 5.29905 6.40864 5.2667 6.43355C5.26631 6.43385 5.26575 6.43378 5.26544 6.4334C5.24552 6.40916 5.20972 6.40565 5.18547 6.42557C5.0906 6.50352 5.00352 6.5906 4.92557 6.68547C4.90565 6.70972 4.90916 6.74552 4.9334 6.76544C4.93378 6.76575 4.93385 6.76631 4.93355 6.7667C4.93282 6.76765 4.93209 6.76859 4.93136 6.76954C4.93106 6.76993 4.93051 6.77001 4.93011 6.76973C4.90462 6.75143 4.86912 6.75726 4.85082 6.78275C4.80323 6.84904 4.75986 6.91856 4.7211 6.99094C4.70628 7.0186 4.71669 7.05303 4.74436 7.06785C4.74479 7.06808 4.74497 7.06862 4.74475 7.06906C4.7092 7.14084 4.67824 7.21531 4.65228 7.29207C4.65212 7.29254 4.65161 7.2928 4.65114 7.29265C4.6211 7.28355 4.58938 7.30052 4.58028 7.33056C4.56847 7.36955 4.55789 7.40907 4.5486 7.44909C4.5415 7.47966 4.56052 7.51019 4.59108 7.51729C4.59157 7.5174 4.59188 7.51788 4.59178 7.51836C4.58385 7.55825 4.57722 7.5986 4.57195 7.63938C4.57188 7.63987 4.57144 7.64022 4.57095 7.64017C4.53972 7.63713 4.51194 7.65998 4.5089 7.69121C4.50301 7.7517 4.5 7.81301 4.5 7.875C4.5 7.93699 4.50301 7.9983 4.5089 8.05879C4.51194 8.09002 4.53972 8.11287 4.57095 8.10983C4.57144 8.10979 4.57188 8.11013 4.57195 8.11062C4.5721 8.11182 4.57226 8.11302 4.57241 8.11422C4.57248 8.11471 4.57214 8.11515 4.57165 8.11523C4.54069 8.12031 4.5197 8.14953 4.52477 8.1805C4.53814 8.26203 4.55676 8.3418 4.58028 8.41944C4.58938 8.44948 4.6211 8.46645 4.65114 8.45735C4.65161 8.4572 4.65212 8.45746 4.65228 8.45793C4.67824 8.53469 4.7092 8.60916 4.74475 8.68094C4.74497 8.68138 4.74479 8.68192 4.74436 8.68215C4.71669 8.69697 4.70628 8.7314 4.7211 8.75906C4.74045 8.7952 4.76095 8.83062 4.78255 8.86529C4.79915 8.89192 4.83419 8.90005 4.86083 8.88346C4.86124 8.8832 4.86179 8.88331 4.86207 8.88372C4.8848 8.91774 4.90864 8.95095 4.93355 8.9833C4.93385 8.98369 4.93378 8.98425 4.9334 8.98456C4.90916 9.00448 4.90565 9.04028 4.92557 9.06453C5.00352 9.1594 5.0906 9.24648 5.18547 9.32443C5.20972 9.34435 5.24552 9.34084 5.26544 9.3166C5.26575 9.31622 5.26631 9.31615 5.2667 9.31645C5.26765 9.31718 5.26859 9.31791 5.26954 9.31864C5.26993 9.31894 5.27001 9.31949 5.26973 9.31989C5.25143 9.34538 5.25726 9.38088 5.28275 9.39918C5.34904 9.44677 5.41856 9.49014 5.49094 9.5289C5.5186 9.54372 5.55303 9.53331 5.56785 9.50564C5.56808 9.50521 5.56862 9.50503 5.56906 9.50525C5.64084 9.54081 5.71531 9.57176 5.79207 9.59772C5.79254 9.59788 5.7928 9.59839 5.79265 9.59887C5.78355 9.6289 5.80052 9.66062 5.83056 9.66972C5.86955 9.68153 5.90907 9.69211 5.94909 9.7014C5.97966 9.7085 6.01019 9.68948 6.01729 9.65892C6.0174 9.65843 6.01788 9.65812 6.01836 9.65822C6.05825 9.66615 6.0986 9.67278 6.13938 9.67805C6.13987 9.67812 6.14022 9.67856 6.14017 9.67905C6.13713 9.71028 6.15998 9.73806 6.19121 9.7411C6.2517 9.74699 6.31301 9.75 6.375 9.75C6.43699 9.75 6.4983 9.74699 6.55879 9.7411C6.59002 9.73806 6.61287 9.71028 6.60983 9.67905C6.60979 9.67856 6.61013 9.67812 6.61062 9.67805C6.61182 9.6779 6.61302 9.67774 6.61422 9.67759C6.61471 9.67752 6.61515 9.67786 6.61523 9.67835C6.62031 9.70932 6.64953 9.7303 6.6805 9.72523C6.76203 9.71186 6.8418 9.69324 6.91944 9.66972C6.94948 9.66062 6.96645 9.6289 6.95735 9.59886C6.9572 9.59839 6.95746 9.59788 6.95793 9.59772C7.03469 9.57176 7.10916 9.5408 7.18094 9.50525C7.18138 9.50503 7.18192 9.50521 7.18215 9.50564C7.19697 9.53331 7.2314 9.54372 7.25906 9.5289C7.2952 9.50955 7.33062 9.48905 7.36529 9.46745C7.39192 9.45085 7.40005 9.41581 7.38346 9.38917C7.3832 9.38876 7.38331 9.38821 7.38372 9.38793C7.41774 9.3652 7.45095 9.34136 7.4833 9.31645C7.48369 9.31615 7.48425 9.31622 7.48456 9.3166C7.50448 9.34084 7.54028 9.34435 7.56453 9.32443C7.6594 9.24648 7.74648 9.1594 7.82443 9.06453C7.84435 9.04028 7.84084 9.00448 7.8166 8.98456C7.81622 8.98425 7.81615 8.98369 7.81645 8.9833C7.81718 8.98235 7.81791 8.98141 7.81864 8.98046C7.81894 8.98007 7.81949 8.97999 7.81989 8.98027C7.84538 8.99857 7.88088 8.99274 7.89918 8.96725C7.94677 8.90096 7.99014 8.83144 8.0289 8.75906C8.04372 8.7314 8.03331 8.69697 8.00564 8.68215C8.00521 8.68192 8.00503 8.68138 8.00525 8.68094C8.04081 8.60916 8.07176 8.53469 8.09772 8.45793C8.09788 8.45746 8.09839 8.4572 8.09887 8.45735C8.1289 8.46645 8.16062 8.44948 8.16972 8.41944C8.18153 8.38045 8.19211 8.34093 8.2014 8.30091C8.2085 8.27034 8.18948 8.23981 8.15892 8.23271C8.15843 8.2326 8.15812 8.23212 8.15822 8.23164C8.16615 8.19175 8.17278 8.1514 8.17805 8.11062C8.17812 8.11013 8.17856 8.10979 8.17905 8.10983C8.21028 8.11287 8.23806 8.09002 8.2411 8.05879C8.24699 7.9983 8.25 7.93699 8.25 7.875C8.25 7.81301 8.24699 7.7517 8.2411 7.69121C8.23806 7.65998 8.21028 7.63713 8.17905 7.64017C8.17856 7.64021 8.17812 7.63987 8.17805 7.63938C8.1779 7.63818 8.17774 7.63698 8.17759 7.63578C8.17752 7.63529 8.17786 7.63485 8.17835 7.63477C8.20932 7.62969 8.2303 7.60047 8.22523 7.56951C8.21186 7.48797 8.19324 7.4082 8.16972 7.33056C8.16062 7.30052 8.1289 7.28355 8.09886 7.29265C8.09839 7.2928 8.09788 7.29254 8.09772 7.29207C8.07176 7.21531 8.04081 7.14084 8.00525 7.06906C8.00503 7.06862 8.00521 7.06808 8.00564 7.06785C8.03331 7.05303 8.04372 7.0186 8.0289 6.99094C8.00955 6.9548 7.98905 6.91938 7.96745 6.88471C7.95085 6.85808 7.91581 6.84995 7.88917 6.86654C7.88876 6.8668 7.88821 6.86669 7.88793 6.86628C7.8652 6.83226 7.84136 6.79905 7.81645 6.7667C7.81615 6.76631 7.81622 6.76575 7.8166 6.76544C7.84084 6.74552 7.84435 6.70972 7.82443 6.68547C7.74648 6.5906 7.6594 6.50352 7.56453 6.42557C7.54028 6.40565 7.50448 6.40916 7.48456 6.4334C7.48425 6.43378 7.48369 6.43385 7.4833 6.43355C7.48235 6.43282 7.48141 6.43209 7.48046 6.43136C7.48007 6.43106 7.47999 6.43051 7.48027 6.43011C7.49857 6.40462 7.49274 6.36912 7.46725 6.35082C7.40096 6.30323 7.33144 6.25986 7.25906 6.2211C7.2314 6.20628 7.19697 6.21669 7.18215 6.24436C7.18192 6.24479 7.18138 6.24497 7.18094 6.24475C7.10916 6.20919 7.03469 6.17824 6.95793 6.15228C6.95746 6.15212 6.9572 6.15161 6.95735 6.15114C6.96645 6.1211 6.94948 6.08938 6.91944 6.08028C6.88045 6.06847 6.84093 6.05789 6.80091 6.0486C6.77034 6.0415 6.73981 6.06052 6.73271 6.09108C6.7326 6.09157 6.73212 6.09188 6.73164 6.09178C6.69175 6.08385 6.6514 6.07722 6.61062 6.07195C6.61013 6.07188 6.60979 6.07144 6.60983 6.07095C6.61287 6.03972 6.59002 6.01194 6.55879 6.0089C6.4983 6.00301 6.43699 6 6.375 6Z" fill="#F3752B"/>
<path d="M8.625 16.5C8.56301 16.5 8.5017 16.503 8.44121 16.5089C8.40998 16.5119 8.38713 16.5397 8.39017 16.571C8.39021 16.5714 8.38987 16.5719 8.38938 16.5719C8.38818 16.5721 8.38698 16.5723 8.38578 16.5724C8.38529 16.5725 8.38485 16.5721 8.38477 16.5717C8.37969 16.5407 8.35047 16.5197 8.31951 16.5248C8.23797 16.5381 8.1582 16.5568 8.08056 16.5803C8.05052 16.5894 8.03355 16.6211 8.04265 16.6511C8.0428 16.6516 8.04254 16.6521 8.04207 16.6523C7.96531 16.6782 7.89084 16.7092 7.81906 16.7447C7.81862 16.745 7.81808 16.7448 7.81785 16.7444C7.80303 16.7167 7.7686 16.7063 7.74094 16.7211C7.7048 16.7405 7.66938 16.761 7.63471 16.7826C7.60808 16.7992 7.59995 16.8342 7.61654 16.8608C7.6168 16.8612 7.61669 16.8618 7.61628 16.8621C7.58226 16.8848 7.54905 16.9086 7.5167 16.9336C7.51631 16.9338 7.51575 16.9338 7.51544 16.9334C7.49552 16.9092 7.45972 16.9057 7.43547 16.9256C7.3406 17.0035 7.25352 17.0906 7.17557 17.1855C7.15565 17.2097 7.15916 17.2455 7.1834 17.2654C7.18378 17.2658 7.18385 17.2663 7.18355 17.2667C7.18282 17.2676 7.18209 17.2686 7.18136 17.2695C7.18106 17.2699 7.18051 17.27 7.18011 17.2697C7.15462 17.2514 7.11912 17.2573 7.10082 17.2827C7.05323 17.349 7.00986 17.4186 6.9711 17.4909C6.95628 17.5186 6.96669 17.553 6.99436 17.5678C6.99479 17.5681 6.99497 17.5686 6.99475 17.5691C6.9592 17.6408 6.92824 17.7153 6.90228 17.7921C6.90212 17.7925 6.90161 17.7928 6.90114 17.7927C6.8711 17.7836 6.83938 17.8005 6.83028 17.8306C6.81847 17.8695 6.80789 17.9091 6.7986 17.9491C6.7915 17.9797 6.81052 18.0102 6.84108 18.0173C6.84157 18.0174 6.84188 18.0179 6.84178 18.0184C6.83385 18.0582 6.82722 18.0986 6.82195 18.1394C6.82188 18.1399 6.82144 18.1402 6.82095 18.1402C6.78972 18.1371 6.76194 18.16 6.7589 18.1912C6.75301 18.2517 6.75 18.313 6.75 18.375C6.75 18.437 6.75301 18.4983 6.7589 18.5588C6.76194 18.59 6.78972 18.6129 6.82095 18.6098C6.82144 18.6098 6.82188 18.6101 6.82195 18.6106C6.8221 18.6118 6.82226 18.613 6.82241 18.6142C6.82248 18.6147 6.82214 18.6152 6.82165 18.6152C6.79069 18.6203 6.7697 18.6495 6.77477 18.6805C6.78814 18.762 6.80676 18.8418 6.83028 18.9194C6.83938 18.9495 6.8711 18.9664 6.90114 18.9573C6.90161 18.9572 6.90212 18.9575 6.90228 18.9579C6.92824 19.0347 6.9592 19.1092 6.99475 19.1809C6.99497 19.1814 6.99479 19.1819 6.99436 19.1822C6.96669 19.197 6.95628 19.2314 6.9711 19.2591C6.99045 19.2952 7.01095 19.3306 7.03255 19.3653C7.04915 19.3919 7.08419 19.4001 7.11083 19.3835C7.11124 19.3832 7.11179 19.3833 7.11207 19.3837C7.1348 19.4177 7.15864 19.451 7.18355 19.4833C7.18385 19.4837 7.18378 19.4842 7.1834 19.4846C7.15916 19.5045 7.15565 19.5403 7.17557 19.5645C7.25352 19.6594 7.3406 19.7465 7.43547 19.8244C7.45972 19.8443 7.49552 19.8408 7.51544 19.8166C7.51575 19.8162 7.51631 19.8162 7.5167 19.8164C7.51765 19.8172 7.51859 19.8179 7.51954 19.8186C7.51993 19.8189 7.52001 19.8195 7.51973 19.8199C7.50143 19.8454 7.50726 19.8809 7.53275 19.8992C7.59904 19.9468 7.66856 19.9901 7.74094 20.0289C7.7686 20.0437 7.80303 20.0333 7.81785 20.0056C7.81808 20.0052 7.81862 20.005 7.81906 20.0053C7.89084 20.0408 7.96531 20.0718 8.04207 20.0977C8.04254 20.0979 8.0428 20.0984 8.04265 20.0989C8.03355 20.1289 8.05052 20.1606 8.08056 20.1697C8.11955 20.1815 8.15907 20.1921 8.19909 20.2014C8.22966 20.2085 8.26019 20.1895 8.26729 20.1589C8.2674 20.1584 8.26788 20.1581 8.26836 20.1582C8.30825 20.1662 8.3486 20.1728 8.38938 20.1781C8.38987 20.1781 8.39022 20.1786 8.39017 20.179C8.38713 20.2103 8.40998 20.2381 8.44121 20.2411C8.5017 20.247 8.56301 20.25 8.625 20.25C8.68699 20.25 8.7483 20.247 8.80879 20.2411C8.84002 20.2381 8.86287 20.2103 8.85983 20.179C8.85979 20.1786 8.86013 20.1781 8.86062 20.1781C8.86182 20.1779 8.86302 20.1777 8.86422 20.1776C8.86471 20.1775 8.86515 20.1779 8.86523 20.1783C8.87031 20.2093 8.89953 20.2303 8.9305 20.2252C9.01203 20.2119 9.0918 20.1932 9.16944 20.1697C9.19948 20.1606 9.21645 20.1289 9.20735 20.0989C9.2072 20.0984 9.20746 20.0979 9.20793 20.0977C9.28469 20.0718 9.35916 20.0408 9.43094 20.0053C9.43138 20.005 9.43192 20.0052 9.43215 20.0056C9.44697 20.0333 9.4814 20.0437 9.50906 20.0289C9.5452 20.0095 9.58062 19.989 9.61529 19.9674C9.64192 19.9509 9.65005 19.9158 9.63346 19.8892C9.6332 19.8888 9.63331 19.8882 9.63372 19.8879C9.66774 19.8652 9.70095 19.8414 9.7333 19.8164C9.73369 19.8162 9.73425 19.8162 9.73456 19.8166C9.75448 19.8408 9.79028 19.8443 9.81453 19.8244C9.9094 19.7465 9.99648 19.6594 10.0744 19.5645C10.0943 19.5403 10.0908 19.5045 10.0666 19.4846C10.0662 19.4842 10.0662 19.4837 10.0664 19.4833C10.0672 19.4824 10.0679 19.4814 10.0686 19.4805C10.0689 19.4801 10.0695 19.48 10.0699 19.4803C10.0954 19.4986 10.1309 19.4927 10.1492 19.4673C10.1968 19.401 10.2401 19.3314 10.2789 19.2591C10.2937 19.2314 10.2833 19.197 10.2556 19.1822C10.2552 19.1819 10.255 19.1814 10.2553 19.1809C10.2908 19.1092 10.3218 19.0347 10.3477 18.9579C10.3479 18.9575 10.3484 18.9572 10.3489 18.9573C10.3789 18.9664 10.4106 18.9495 10.4197 18.9194C10.4315 18.8805 10.4421 18.8409 10.4514 18.8009C10.4585 18.7703 10.4395 18.7398 10.4089 18.7327C10.4084 18.7326 10.4081 18.7321 10.4082 18.7316C10.4162 18.6918 10.4228 18.6514 10.4281 18.6106C10.4281 18.6101 10.4286 18.6098 10.429 18.6098C10.4603 18.6129 10.4881 18.59 10.4911 18.5588C10.497 18.4983 10.5 18.437 10.5 18.375C10.5 18.313 10.497 18.2517 10.4911 18.1912C10.4881 18.16 10.4603 18.1371 10.429 18.1402C10.4286 18.1402 10.4281 18.1399 10.4281 18.1394C10.4279 18.1382 10.4277 18.137 10.4276 18.1358C10.4275 18.1353 10.4279 18.1348 10.4283 18.1348C10.4593 18.1297 10.4803 18.1005 10.4752 18.0695C10.4619 17.988 10.4432 17.9082 10.4197 17.8306C10.4106 17.8005 10.3789 17.7836 10.3489 17.7927C10.3484 17.7928 10.3479 17.7925 10.3477 17.7921C10.3218 17.7153 10.2908 17.6408 10.2553 17.5691C10.255 17.5686 10.2552 17.5681 10.2556 17.5678C10.2833 17.553 10.2937 17.5186 10.2789 17.4909C10.2595 17.4548 10.239 17.4194 10.2174 17.3847C10.2009 17.3581 10.1658 17.3499 10.1392 17.3665C10.1388 17.3668 10.1382 17.3667 10.1379 17.3663C10.1152 17.3323 10.0914 17.299 10.0664 17.2667C10.0662 17.2663 10.0662 17.2658 10.0666 17.2654C10.0908 17.2455 10.0943 17.2097 10.0744 17.1855C9.99648 17.0906 9.9094 17.0035 9.81453 16.9256C9.79028 16.9057 9.75448 16.9092 9.73456 16.9334C9.73425 16.9338 9.73369 16.9338 9.7333 16.9336C9.73235 16.9328 9.73141 16.9321 9.73046 16.9314C9.73007 16.9311 9.72999 16.9305 9.73027 16.9301C9.74857 16.9046 9.74274 16.8691 9.71725 16.8508C9.65096 16.8032 9.58144 16.7599 9.50906 16.7211C9.4814 16.7063 9.44697 16.7167 9.43215 16.7444C9.43192 16.7448 9.43138 16.745 9.43094 16.7447C9.35916 16.7092 9.28469 16.6782 9.20793 16.6523C9.20746 16.6521 9.2072 16.6516 9.20735 16.6511C9.21645 16.6211 9.19948 16.5894 9.16944 16.5803C9.13045 16.5685 9.09093 16.5579 9.05091 16.5486C9.02034 16.5415 8.98981 16.5605 8.98271 16.5911C8.9826 16.5916 8.98212 16.5919 8.98164 16.5918C8.94175 16.5838 8.9014 16.5772 8.86062 16.5719C8.86013 16.5719 8.85979 16.5714 8.85983 16.571C8.86287 16.5397 8.84002 16.5119 8.80879 16.5089C8.7483 16.503 8.68699 16.5 8.625 16.5Z" fill="#F3752B"/>
<path d="M14.625 7.5C14.563 7.5 14.5017 7.50301 14.4412 7.5089C14.41 7.51194 14.3871 7.53972 14.3902 7.57095C14.3902 7.57144 14.3899 7.57188 14.3894 7.57195C14.3882 7.5721 14.387 7.57226 14.3858 7.57241C14.3853 7.57248 14.3848 7.57214 14.3848 7.57165C14.3797 7.54069 14.3505 7.5197 14.3195 7.52477C14.238 7.53814 14.1582 7.55676 14.0806 7.58028C14.0505 7.58938 14.0336 7.6211 14.0427 7.65114C14.0428 7.65161 14.0425 7.65212 14.0421 7.65228C13.9653 7.67824 13.8908 7.7092 13.8191 7.74475C13.8186 7.74497 13.8181 7.74479 13.8178 7.74436C13.803 7.71669 13.7686 7.70628 13.7409 7.7211C13.7048 7.74045 13.6694 7.76095 13.6347 7.78255C13.6081 7.79915 13.5999 7.83419 13.6165 7.86083C13.6168 7.86124 13.6167 7.86179 13.6163 7.86207C13.5823 7.8848 13.549 7.90864 13.5167 7.93355C13.5163 7.93385 13.5158 7.93378 13.5154 7.9334C13.4955 7.90916 13.4597 7.90565 13.4355 7.92557C13.3406 8.00352 13.2535 8.0906 13.1756 8.18547C13.1557 8.20972 13.1592 8.24552 13.1834 8.26544C13.1838 8.26575 13.1838 8.26631 13.1836 8.2667C13.1828 8.26765 13.1821 8.26859 13.1814 8.26954C13.1811 8.26993 13.1805 8.27001 13.1801 8.26973C13.1546 8.25143 13.1191 8.25726 13.1008 8.28275C13.0532 8.34904 13.0099 8.41856 12.9711 8.49094C12.9563 8.5186 12.9667 8.55303 12.9944 8.56785C12.9948 8.56808 12.995 8.56862 12.9947 8.56906C12.9592 8.64084 12.9282 8.71531 12.9023 8.79207C12.9021 8.79254 12.9016 8.7928 12.9011 8.79265C12.8711 8.78355 12.8394 8.80052 12.8303 8.83056C12.8185 8.86955 12.8079 8.90907 12.7986 8.94909C12.7915 8.97966 12.8105 9.01019 12.8411 9.01729C12.8416 9.0174 12.8419 9.01788 12.8418 9.01836C12.8338 9.05825 12.8272 9.0986 12.8219 9.13938C12.8219 9.13987 12.8214 9.14022 12.821 9.14017C12.7897 9.13713 12.7619 9.15998 12.7589 9.19121C12.753 9.2517 12.75 9.31301 12.75 9.375C12.75 9.43699 12.753 9.4983 12.7589 9.55879C12.7619 9.59002 12.7897 9.61287 12.821 9.60983C12.8214 9.60979 12.8219 9.61013 12.8219 9.61062C12.8221 9.61182 12.8223 9.61302 12.8224 9.61422C12.8225 9.61471 12.8221 9.61515 12.8217 9.61523C12.7907 9.62031 12.7697 9.64953 12.7748 9.6805C12.7881 9.76203 12.8068 9.8418 12.8303 9.91944C12.8394 9.94948 12.8711 9.96645 12.9011 9.95735C12.9016 9.9572 12.9021 9.95746 12.9023 9.95793C12.9282 10.0347 12.9592 10.1092 12.9947 10.1809C12.995 10.1814 12.9948 10.1819 12.9944 10.1822C12.9667 10.197 12.9563 10.2314 12.9711 10.2591C12.9905 10.2952 13.011 10.3306 13.0326 10.3653C13.0492 10.3919 13.0842 10.4001 13.1108 10.3835C13.1112 10.3832 13.1118 10.3833 13.1121 10.3837C13.1348 10.4177 13.1586 10.451 13.1836 10.4833C13.1838 10.4837 13.1838 10.4842 13.1834 10.4846C13.1592 10.5045 13.1557 10.5403 13.1756 10.5645C13.2535 10.6594 13.3406 10.7465 13.4355 10.8244C13.4597 10.8443 13.4955 10.8408 13.5154 10.8166C13.5158 10.8162 13.5163 10.8162 13.5167 10.8164C13.5176 10.8172 13.5186 10.8179 13.5195 10.8186C13.5199 10.8189 13.52 10.8195 13.5197 10.8199C13.5014 10.8454 13.5073 10.8809 13.5327 10.8992C13.599 10.9468 13.6686 10.9901 13.7409 11.0289C13.7686 11.0437 13.803 11.0333 13.8178 11.0056C13.8181 11.0052 13.8186 11.005 13.8191 11.0053C13.8908 11.0408 13.9653 11.0718 14.0421 11.0977C14.0425 11.0979 14.0428 11.0984 14.0427 11.0989C14.0336 11.1289 14.0505 11.1606 14.0806 11.1697C14.1195 11.1815 14.1591 11.1921 14.1991 11.2014C14.2297 11.2085 14.2602 11.1895 14.2673 11.1589C14.2674 11.1584 14.2679 11.1581 14.2684 11.1582C14.3082 11.1662 14.3486 11.1728 14.3894 11.1781C14.3899 11.1781 14.3902 11.1786 14.3902 11.179C14.3871 11.2103 14.41 11.2381 14.4412 11.2411C14.5017 11.247 14.563 11.25 14.625 11.25C14.687 11.25 14.7483 11.247 14.8088 11.2411C14.84 11.2381 14.8629 11.2103 14.8598 11.179C14.8598 11.1786 14.8601 11.1781 14.8606 11.1781C14.8618 11.1779 14.863 11.1777 14.8642 11.1776C14.8647 11.1775 14.8652 11.1779 14.8652 11.1783C14.8703 11.2093 14.8995 11.2303 14.9305 11.2252C15.012 11.2119 15.0918 11.1932 15.1694 11.1697C15.1995 11.1606 15.2164 11.1289 15.2073 11.0989C15.2072 11.0984 15.2075 11.0979 15.2079 11.0977C15.2847 11.0718 15.3592 11.0408 15.4309 11.0053C15.4314 11.005 15.4319 11.0052 15.4322 11.0056C15.447 11.0333 15.4814 11.0437 15.5091 11.0289C15.5452 11.0095 15.5806 10.989 15.6153 10.9674C15.6419 10.9509 15.6501 10.9158 15.6335 10.8892C15.6332 10.8888 15.6333 10.8882 15.6337 10.8879C15.6677 10.8652 15.701 10.8414 15.7333 10.8164C15.7337 10.8162 15.7342 10.8162 15.7346 10.8166C15.7545 10.8408 15.7903 10.8443 15.8145 10.8244C15.9094 10.7465 15.9965 10.6594 16.0744 10.5645C16.0943 10.5403 16.0908 10.5045 16.0666 10.4846C16.0662 10.4842 16.0662 10.4837 16.0664 10.4833C16.0672 10.4824 16.0679 10.4814 16.0686 10.4805C16.0689 10.4801 16.0695 10.48 16.0699 10.4803C16.0954 10.4986 16.1309 10.4927 16.1492 10.4673C16.1968 10.401 16.2401 10.3314 16.2789 10.2591C16.2937 10.2314 16.2833 10.197 16.2556 10.1822C16.2552 10.1819 16.255 10.1814 16.2553 10.1809C16.2908 10.1092 16.3218 10.0347 16.3477 9.95793C16.3479 9.95746 16.3484 9.9572 16.3489 9.95735C16.3789 9.96645 16.4106 9.94948 16.4197 9.91944C16.4315 9.88045 16.4421 9.84093 16.4514 9.80091C16.4585 9.77034 16.4395 9.73981 16.4089 9.73271C16.4084 9.7326 16.4081 9.73212 16.4082 9.73164C16.4162 9.69175 16.4228 9.6514 16.4281 9.61062C16.4281 9.61013 16.4286 9.60979 16.429 9.60983C16.4603 9.61287 16.4881 9.59002 16.4911 9.55879C16.497 9.4983 16.5 9.43699 16.5 9.375C16.5 9.31301 16.497 9.2517 16.4911 9.19121C16.4881 9.15998 16.4603 9.13713 16.429 9.14017C16.4286 9.14021 16.4281 9.13987 16.4281 9.13938C16.4279 9.13818 16.4277 9.13698 16.4276 9.13578C16.4275 9.13529 16.4279 9.13485 16.4283 9.13477C16.4593 9.12969 16.4803 9.10047 16.4752 9.06951C16.4619 8.98797 16.4432 8.9082 16.4197 8.83056C16.4106 8.80052 16.3789 8.78355 16.3489 8.79265C16.3484 8.7928 16.3479 8.79254 16.3477 8.79207C16.3218 8.71531 16.2908 8.64084 16.2553 8.56906C16.255 8.56862 16.2552 8.56808 16.2556 8.56785C16.2833 8.55303 16.2937 8.5186 16.2789 8.49094C16.2595 8.4548 16.239 8.41938 16.2174 8.38471C16.2009 8.35808 16.1658 8.34995 16.1392 8.36654C16.1388 8.3668 16.1382 8.36669 16.1379 8.36628C16.1152 8.33226 16.0914 8.29905 16.0664 8.2667C16.0662 8.26631 16.0662 8.26575 16.0666 8.26544C16.0908 8.24552 16.0943 8.20972 16.0744 8.18547C15.9965 8.0906 15.9094 8.00352 15.8145 7.92557C15.7903 7.90565 15.7545 7.90916 15.7346 7.9334C15.7342 7.93378 15.7337 7.93385 15.7333 7.93355C15.7324 7.93282 15.7314 7.93209 15.7305 7.93136C15.7301 7.93106 15.73 7.93051 15.7303 7.93011C15.7486 7.90462 15.7427 7.86912 15.7173 7.85082C15.651 7.80323 15.5814 7.75986 15.5091 7.7211C15.4814 7.70628 15.447 7.71669 15.4322 7.74436C15.4319 7.74479 15.4314 7.74497 15.4309 7.74475C15.3592 7.70919 15.2847 7.67824 15.2079 7.65228C15.2075 7.65212 15.2072 7.65161 15.2073 7.65114C15.2164 7.6211 15.1995 7.58938 15.1694 7.58028C15.1305 7.56847 15.0909 7.55789 15.0509 7.5486C15.0203 7.5415 14.9898 7.56052 14.9827 7.59108C14.9826 7.59157 14.9821 7.59188 14.9816 7.59178C14.9418 7.58385 14.9014 7.57722 14.8606 7.57195C14.8601 7.57188 14.8598 7.57144 14.8598 7.57095C14.8629 7.53972 14.84 7.51194 14.8088 7.5089C14.7483 7.50301 14.687 7.5 14.625 7.5Z" fill="#F3752B"/>
<path fill-rule="evenodd" clip-rule="evenodd" d="M0.182036 13.7556C0.228955 13.6441 0.3304 13.5585 0.458546 13.5375C0.461663 13.537 0.463839 13.5341 0.463427 13.531L0.460426 13.508C0.460022 13.5048 0.457194 13.5026 0.454065 13.5029C0.254178 13.5224 0.0763683 13.3761 0.0569152 13.1762C0.0530261 13.1363 0.0493333 13.0962 0.0458374 13.0562C0.127006 12.5854 0.537308 12.2273 1.03126 12.2273H2.90626C3.07564 12.2273 3.23519 12.2694 3.37501 12.3437C3.51482 12.2694 3.67437 12.2273 3.84376 12.2273H6.65626C7.08588 12.2273 7.45222 12.4982 7.59376 12.8785C7.6918 12.6151 7.8977 12.4041 8.15779 12.2993C8.02639 12.2658 7.89973 12.2048 7.78641 12.1154C7.35286 11.7732 7.27875 11.1444 7.62088 10.7109L8.77641 9.24659C8.88073 9.11439 9.01171 9.01561 9.15569 8.95186C9.18422 8.79701 9.24984 8.64665 9.35417 8.51445L11.0875 6.31802C11.3506 5.98455 11.7834 5.86373 12.1664 5.9814C11.9629 5.6362 11.9798 5.1872 12.243 4.85373L12.8207 4.12159C13.1629 3.68804 13.7917 3.61393 14.2252 3.95606C14.6588 4.29819 14.7329 4.927 14.3908 5.36055L13.813 6.0927C13.5498 6.42617 13.1171 6.54699 12.734 6.42931C12.9375 6.77451 12.9206 7.22351 12.6575 7.55698L10.9242 9.75341C10.8199 9.88561 10.6889 9.98439 10.5449 10.0481C10.5164 10.203 10.4508 10.3533 10.3464 10.4856L9.1909 11.9498C9.09559 12.0706 8.97802 12.1635 8.84862 12.2273H9.46876C10.021 12.2273 10.4688 12.675 10.4688 13.2273C10.4688 13.7796 10.021 14.2273 9.46876 14.2273H8.53126C8.15437 14.2273 7.82617 14.0188 7.65573 13.7108C7.62701 13.865 7.5615 14.0146 7.45762 14.1463L6.87986 14.8784C6.6167 15.2119 6.18394 15.3327 5.80088 15.215C6.00439 15.5602 5.98749 16.0092 5.72433 16.3427L3.99105 18.5391C3.88672 18.6713 3.75574 18.7701 3.61176 18.8339C3.58323 18.9887 3.51761 19.1391 3.41329 19.2713L2.94084 19.87C2.86726 19.7853 2.79485 19.6997 2.72364 19.613C2.59614 19.4578 2.61858 19.2287 2.77375 19.1012C2.77618 19.0992 2.77661 19.0956 2.7747 19.0931C2.61528 18.8861 2.46267 18.6736 2.31721 18.4558C2.31546 18.4532 2.31193 18.4525 2.30926 18.4541C2.13881 18.5603 1.91454 18.5083 1.80832 18.3378C1.77793 18.2891 1.74788 18.2401 1.71818 18.1908L1.84327 18.0323C1.94759 17.9001 2.07857 17.8013 2.22255 17.7376C2.25108 17.5827 2.3167 17.4324 2.42103 17.3002L4.15431 15.1037C4.41747 14.7703 4.85023 14.6494 5.23329 14.7671C5.13642 14.6028 5.08949 14.415 5.09528 14.2273H3.84376C3.67437 14.2273 3.51482 14.1852 3.37501 14.1108C3.23519 14.1852 3.07564 14.2273 2.90626 14.2273H1.03126C0.672919 14.2273 0.358604 14.0388 0.182036 13.7556ZM18.5076 21.9169C18.4973 22.026 18.438 22.1292 18.3378 22.1917C18.1159 22.3299 17.8892 22.4611 17.658 22.585C17.481 22.6798 17.2606 22.6132 17.1657 22.4361C17.1643 22.4333 17.1608 22.4322 17.158 22.4336C17.0927 22.4659 17.0271 22.4976 16.9612 22.5288C17.0196 22.2568 17.1885 22.0259 17.4187 21.8854C17.131 21.7098 16.939 21.393 16.939 21.0313V18.4688C16.939 18.316 16.9732 18.1712 17.0345 18.0417C16.9732 17.9121 16.939 17.7674 16.939 17.6146V15.9063C16.939 15.354 17.3867 14.9063 17.939 14.9063C18.4912 14.9063 18.939 15.354 18.939 15.9063V17.6146C18.939 17.7674 18.9047 17.9121 18.8434 18.0417C18.9047 18.1712 18.939 18.316 18.939 18.4688V21.0313C18.939 21.1582 18.9153 21.2796 18.8722 21.3913C18.7356 21.4914 18.5968 21.5886 18.4558 21.6828C18.4532 21.6845 18.4524 21.688 18.4541 21.6907C18.4859 21.7417 18.5035 21.7976 18.508 21.8537C18.4921 21.8647 18.4758 21.8753 18.4592 21.8854C18.4757 21.8955 18.4918 21.9059 18.5076 21.9169ZM23.9979 12.2273C23.9919 12.5467 23.9735 12.8632 23.943 13.1762C23.9236 13.3761 23.7458 13.5224 23.5459 13.5029C23.5428 13.5026 23.5399 13.5048 23.5395 13.508C23.5084 13.7482 23.47 13.9862 23.4245 14.2216C22.9224 14.1684 22.5313 13.7435 22.5313 13.2273C22.5313 12.675 22.979 12.2273 23.5313 12.2273H23.9979ZM18.9385 2.20818C18.9388 2.21861 18.939 2.22908 18.939 2.23958V3.09375C18.939 3.64604 18.4912 4.09375 17.939 4.09375C17.3867 4.09375 16.939 3.64604 16.939 3.09375V2.23958C16.939 2.20012 16.9412 2.1612 16.9457 2.12293L16.124 3.16412C15.7819 3.59767 15.1531 3.67178 14.7196 3.32965C14.286 2.98752 14.2119 2.35871 14.554 1.92516L15.6129 0.583313C15.7209 0.674101 15.7705 0.823699 15.727 0.967263C15.7261 0.970304 15.7277 0.973548 15.7307 0.974566C16.222 1.14075 16.6986 1.33885 17.158 1.56639C17.1608 1.5678 17.1642 1.56667 17.1657 1.56388C17.2606 1.38684 17.481 1.3202 17.658 1.41502C18.1023 1.65301 18.5299 1.91814 18.9385 2.20818ZM18.939 5.65625C18.939 5.10397 18.4912 4.65625 17.939 4.65625C17.3867 4.65625 16.939 5.10397 16.939 5.65625V7.36458C16.939 7.51737 16.9732 7.66215 17.0345 7.79166C16.9732 7.92118 16.939 8.06596 16.939 8.21875V10.7813C16.939 11.143 17.131 11.4598 17.4187 11.6354C17.2032 11.767 17.0414 11.9777 16.9737 12.2273H15.0938C14.9244 12.2273 14.7648 12.2694 14.625 12.3437C14.4852 12.2694 14.3256 12.2273 14.1563 12.2273H12.2813C11.729 12.2273 11.2813 12.675 11.2813 13.2273C11.2813 13.7796 11.729 14.2273 12.2813 14.2273H14.1563C14.3256 14.2273 14.4852 14.1852 14.625 14.1108C14.7648 14.1852 14.9244 14.2273 15.0938 14.2273H17.4701C17.61 14.3016 17.7695 14.3438 17.939 14.3438C18.3769 14.3438 18.7491 14.0622 18.8845 13.6702C19.0478 14.0003 19.388 14.2273 19.7813 14.2273H20.7188C21.271 14.2273 21.7188 13.7796 21.7188 13.2273C21.7188 12.675 21.271 12.2273 20.7188 12.2273H19.7813C19.4276 12.2273 19.1167 12.4109 18.939 12.688V12.4896C18.939 12.1279 18.7469 11.811 18.4592 11.6354C18.7469 11.4598 18.939 11.143 18.939 10.7813V8.21875C18.939 8.06596 18.9047 7.92118 18.8434 7.79166C18.9047 7.66215 18.939 7.51737 18.939 7.36458V5.65625Z" fill="white"/>
<path d="M11.25 3C11.25 4.65685 9.90685 6 8.25 6C8.25 4.34315 9.59315 3 11.25 3Z" fill="#00A896"/>
<path fill-rule="evenodd" clip-rule="evenodd" d="M10.4489 2.66223C10.518 2.60091 10.6049 2.55799 10.7029 2.54258C10.8815 2.51452 11.0642 2.5 11.25 2.5C11.5261 2.5 11.75 2.72386 11.75 3C11.75 3.1858 11.7355 3.36854 11.7074 3.54708C11.6697 3.78723 11.4669 3.96041 11.2327 3.96918C11.417 4.11381 11.4794 4.37312 11.3689 4.58962C11.2852 4.75361 11.189 4.91004 11.0815 5.05768C10.9386 5.25399 10.6796 5.31578 10.4674 5.21739C10.5658 5.42963 10.504 5.68864 10.3077 5.83151C10.0139 6.04529 9.68533 6.21467 9.3318 6.32947C9.23739 6.36013 9.14047 6.36119 9.05108 6.33777C8.98199 6.39909 8.89512 6.44201 8.79708 6.45742C8.61854 6.48548 8.4358 6.5 8.25 6.5C7.97386 6.5 7.75 6.27614 7.75 6C7.75 5.8142 7.76452 5.63146 7.79258 5.45292C7.83032 5.21277 8.03315 5.03959 8.26726 5.03082C8.08295 4.88619 8.02056 4.62688 8.1311 4.41038C8.21482 4.24639 8.31105 4.08996 8.41849 3.94232C8.56136 3.74601 8.82037 3.68422 9.03261 3.78261C8.93422 3.57037 8.99601 3.31136 9.19232 3.16849C9.48607 2.95471 9.81467 2.78533 10.1682 2.67053C10.2626 2.63987 10.3595 2.63881 10.4489 2.66223ZM9.27669 4.02669C9.35009 4.18585 9.3375 4.37898 9.22703 4.53076C9.15019 4.63634 9.08147 4.74809 9.02173 4.86509C8.93653 5.03198 8.77046 5.13056 8.59566 5.13745C8.69758 5.21776 8.76598 5.33606 8.78264 5.46736C8.80405 5.47008 8.82512 5.47417 8.84574 5.47956C8.89569 5.43526 8.95539 5.4003 9.02295 5.37836C9.27469 5.29662 9.50917 5.17585 9.71924 5.02297C9.87102 4.9125 10.0641 4.89991 10.2233 4.97331C10.1499 4.81415 10.1625 4.62102 10.273 4.46924C10.3498 4.36366 10.4185 4.25191 10.4783 4.13491C10.5635 3.96802 10.7295 3.86944 10.9043 3.86255C10.8024 3.78224 10.734 3.66394 10.7174 3.53264C10.6959 3.52992 10.6749 3.52583 10.6543 3.52044C10.6043 3.56474 10.5446 3.5997 10.477 3.62164C10.2253 3.70338 9.99083 3.82415 9.78076 3.97703C9.62898 4.0875 9.43585 4.10009 9.27669 4.02669Z" fill="#00A896"/>
<path d="M11.25 15.75C12.9069 15.75 14.25 17.0931 14.25 18.75C12.5931 18.75 11.25 17.4069 11.25 15.75Z" fill="#00A896"/>
<path fill-rule="evenodd" clip-rule="evenodd" d="M10.9122 16.5511C10.8509 16.482 10.808 16.3951 10.7926 16.2971C10.7645 16.1185 10.75 15.9358 10.75 15.75C10.75 15.4739 10.9739 15.25 11.25 15.25C11.4358 15.25 11.6185 15.2645 11.7971 15.2926C12.0372 15.3303 12.2104 15.5331 12.2192 15.7673C12.3638 15.583 12.6231 15.5206 12.8396 15.6311C13.0036 15.7148 13.16 15.811 13.3077 15.9185C13.504 16.0614 13.5658 16.3204 13.4674 16.5326C13.6796 16.4342 13.9386 16.496 14.0815 16.6923C14.2953 16.9861 14.4647 17.3147 14.5795 17.6682C14.6101 17.7626 14.6112 17.8595 14.5878 17.9489C14.6491 18.018 14.692 18.1049 14.7074 18.2029C14.7355 18.3815 14.75 18.5642 14.75 18.75C14.75 19.0261 14.5261 19.25 14.25 19.25C14.0642 19.25 13.8815 19.2355 13.7029 19.2074C13.4628 19.1697 13.2896 18.9669 13.2808 18.7327C13.1362 18.917 12.8769 18.9794 12.6604 18.8689C12.4964 18.7852 12.34 18.689 12.1923 18.5815C11.996 18.4386 11.9342 18.1796 12.0326 17.9674C11.8204 18.0658 11.5614 18.004 11.4185 17.8077C11.2047 17.5139 11.0353 17.1853 10.9205 16.8318C10.8899 16.7374 10.8888 16.6405 10.9122 16.5511ZM12.2767 17.7233C12.4359 17.6499 12.629 17.6625 12.7808 17.773C12.8863 17.8498 12.9981 17.9185 13.1151 17.9783C13.282 18.0635 13.3806 18.2295 13.3875 18.4043C13.4678 18.3024 13.5861 18.234 13.7174 18.2174C13.7201 18.1959 13.7242 18.1749 13.7296 18.1543C13.6853 18.1043 13.6503 18.0446 13.6284 17.977C13.5466 17.7253 13.4259 17.4908 13.273 17.2808C13.1625 17.129 13.1499 16.9359 13.2233 16.7767C13.0642 16.8501 12.871 16.8375 12.7192 16.727C12.6137 16.6502 12.5019 16.5815 12.3849 16.5217C12.218 16.4365 12.1194 16.2705 12.1125 16.0957C12.0322 16.1976 11.9139 16.266 11.7826 16.2826C11.7799 16.3041 11.7758 16.3251 11.7704 16.3457C11.8147 16.3957 11.8497 16.4554 11.8716 16.523C11.9534 16.7747 12.0741 17.0092 12.227 17.2192C12.3375 17.371 12.3501 17.5642 12.2767 17.7233Z" fill="#00A896"/>
</svg>
