<svg width="14" height="11" viewBox="0 0 14 11" fill="none" xmlns="http://www.w3.org/2000/svg">
<path fill-rule="evenodd" clip-rule="evenodd" d="M13.7069 0.293048C13.8946 0.480743 14 0.735279 14 1.00068C14 1.26608 13.8946 1.52062 13.7069 1.70831L5.69978 9.71546C5.51209 9.9031 5.25755 10.0085 4.99215 10.0085C4.72675 10.0085 4.47221 9.9031 4.28452 9.71546L0.280944 5.71189C0.0986227 5.52312 -0.00226169 5.27029 1.87629e-05 5.00786C0.00229922 4.74543 0.107562 4.49439 0.293136 4.30882C0.47871 4.12324 0.729746 4.01798 0.992177 4.0157C1.25461 4.01342 1.50744 4.1143 1.69621 4.29662L4.99215 7.59257L12.2917 0.293048C12.4794 0.10541 12.7339 0 12.9993 0C13.2647 0 13.5192 0.10541 13.7069 0.293048Z" fill="white"/>
</svg>
