<svg width="20" height="20" viewBox="0 0 24 24" fill="none" xmlns="http://www.w3.org/2000/svg">
<rect x="1" y="1" width="22" height="22" rx="7" fill="#00A896" stroke="#00A896" stroke-width="2"/>
<path fill-rule="evenodd" clip-rule="evenodd" d="M20.3837 6.11631C20.6182 6.35093 20.75 6.6691 20.75 7.00085C20.75 7.3326 20.6182 7.65077 20.3837 7.88539L10.3748 17.8943C10.1401 18.1289 9.82196 18.2606 9.49021 18.2606C9.15846 18.2606 8.84029 18.1289 8.60567 17.8943L3.6012 12.8899C3.3733 12.6539 3.2472 12.3379 3.25005 12.0098C3.2529 11.6818 3.38448 11.368 3.61644 11.136C3.84841 10.9041 4.16221 10.7725 4.49025 10.7696C4.81828 10.7668 5.13432 10.8929 5.37028 11.1208L9.49021 15.2407L18.6146 6.11631C18.8492 5.88176 19.1674 5.75 19.4992 5.75C19.8309 5.75 20.1491 5.88176 20.3837 6.11631Z" fill="white"/>
</svg>
